<?xml version="1.0" standalone="no"?><svg xmlns="http://www.w3.org/2000/svg" viewBox="0 0 1440 320"><path fill="#D5C5A2" fill-opacity="1" d="M0,128L18.5,122.7C36.9,117,74,107,111,133.3C147.7,160,185,224,222,213.3C258.5,203,295,117,332,112C369.2,107,406,181,443,192C480,203,517,149,554,112C590.8,75,628,53,665,58.7C701.5,64,738,96,775,138.7C812.3,181,849,235,886,229.3C923.1,224,960,160,997,138.7C1033.8,117,1071,139,1108,144C1144.6,149,1182,139,1218,112C1255.4,85,1292,43,1329,32C1366.2,21,1403,43,1422,53.3L1440,64L1440,320L1421.5,320C1403.1,320,1366,320,1329,320C1292.3,320,1255,320,1218,320C1181.5,320,1145,320,1108,320C1070.8,320,1034,320,997,320C960,320,923,320,886,320C849.2,320,812,320,775,320C738.5,320,702,320,665,320C627.7,320,591,320,554,320C516.9,320,480,320,443,320C406.2,320,369,320,332,320C295.4,320,258,320,222,320C184.6,320,148,320,111,320C73.8,320,37,320,18,320L0,320Z"></path></svg>